<svg xmlns="http://www.w3.org/2000/svg" viewBox="0 0 1400 700" fill="none">
  <polyline points="412.1,177.4 426.0,182.6 439.8,188.2 453.4,194.2 466.9,200.4 480.3,207.0 493.5,213.8 506.5,221.0 519.3,228.6 532.0,236.4 544.5,244.5 556.7,252.9 568.8,261.6 580.6,270.6 592.3,279.9 603.7,289.4 614.9,299.3 625.8,309.3 636.5,319.7 646.9,330.3 657.1,341.1 667.0,352.2 676.7,363.5 686.1,375.1 695.2,386.9 704.0,398.9 712.5,411.1 720.7,423.5 728.6,436.1 736.3,448.8 743.6,461.8 750.6,474.9 757.3,488.2 763.6,501.7 769.7,515.3 775.4,529.0 780.7,542.9 785.8,556.9 790.5,571.0 794.9,585.2 798.9,599.5" stroke="#5B2EE0" stroke-opacity="0.1" stroke-width="2.2" stroke-linecap="round" stroke-dasharray="3 16"/>
  <polyline points="970.0,425.0 958.4,418.1 947.1,411.0 935.8,403.6 924.8,395.9 914.0,388.0 903.3,379.8 892.9,371.3 882.6,362.6 872.6,353.7 862.8,344.5 853.2,335.1 843.8,325.5 834.7,315.6 825.8,305.5 817.1,295.3 808.7,284.8 800.6,274.1 792.7,263.2 785.1,252.1 777.7,240.9 770.6,229.5 763.8,217.9 757.3,206.1 751.0,194.2 745.1,182.2 739.4,170.0 734.0,157.7 729.0,145.2 724.2,132.7 719.7,120.0 715.6,107.2 711.7,94.4 708.1,81.4 704.9,68.4 702.0,55.2 699.4,42.1 697.1,28.8 695.1,15.5 693.5,2.2 692.1,-11.2" stroke="#7C52EA" stroke-opacity="0.09" stroke-width="2.2" stroke-linecap="round" stroke-dasharray="3 16"/>
  <polyline points="350.0,293.8 366.0,284.8 382.2,276.3 398.6,268.2 415.3,260.5 432.1,253.3 449.1,246.5 466.3,240.2 483.7,234.3 501.2,228.8 518.8,223.9 536.6,219.3 554.5,215.3 572.4,211.7 590.5,208.6 608.6,206.0 626.8,203.8 645.1,202.2 663.4,201.0 681.7,200.2 700.0,200.0 718.3,200.2 736.6,201.0 754.9,202.2 773.2,203.8 791.4,206.0 809.5,208.6 827.6,211.7 845.5,215.3 863.4,219.3 881.2,223.9 898.8,228.8 916.3,234.3 933.7,240.2 950.9,246.5 967.9,253.3 984.7,260.5 1001.4,268.2 1017.8,276.3 1034.0,284.8 1050.0,293.8" stroke="#5B2EE0" stroke-opacity="0.07" stroke-width="2.2" stroke-linecap="round" stroke-dasharray="2 18"/>
  <line x1="120" y1="300" x2="560" y2="250" stroke="#7C52EA" stroke-opacity="0.12" stroke-width="3" stroke-linecap="round"/>
  <line x1="760" y1="150" x2="1180" y2="120" stroke="#5B2EE0" stroke-opacity="0.11" stroke-width="2.6" stroke-linecap="round"/>
  <line x1="860" y1="470" x2="1120" y2="452" stroke="#7C52EA" stroke-opacity="0.1" stroke-width="2" stroke-linecap="round"/>
  <line x1="240" y1="560" x2="470" y2="540" stroke="#5B2EE0" stroke-opacity="0.09" stroke-width="2" stroke-linecap="round"/>
  </svg>